<svg version="1.2" xmlns="http://www.w3.org/2000/svg" viewBox="0 0 976 888" width="976" height="888"><style>.a{fill:none;stroke:#fff;stroke-linecap:square;stroke-linejoin:round;stroke-width:19.6}</style><path class="a" d="m295.6 393.5c-291.4-153.3-76.6-447.4 136.2-371.4 173.2 62 242.2 294 125.1 480.8-125.4 181.3-365.8 209.5-491.1 74.8-153.9-165.5 31.6-478.9 287.4-271.7"/><path class="a" d="m679.8 393.5c291.4-153.3 76.6-447.4-136.2-371.4-173.2 62-242.2 294-125 480.8 125.3 181.3 365.7 209.5 491 74.8 153.9-165.5-31.5-478.9-287.4-271.7"/><path class="a" d="m434.2 625.2c-33.7 327.5 330.2 311.5 384.6 92.2 44.4-178.6-110.7-364.4-331-370.3-220.4 4-377.1 188.6-334.2 367.5 52.6 219.8 416.3 238.9 385.4-88.9"/></svg>